<?xml version="1.0" encoding="UTF-8"?>
<svg xmlns="http://www.w3.org/2000/svg" xmlns:xlink="http://www.w3.org/1999/xlink" viewBox="0 0 512 512" width="512px" height="512px">
<g id="surface25285774">
<rect x="0" y="0" width="512" height="512" style="fill:rgb(7.058824%,7.058824%,7.058824%);fill-opacity:1;stroke:none;"/>
<path style=" stroke:none;fill-rule:nonzero;fill:rgb(100%,100%,100%);fill-opacity:1;" d="M 256 48 C 141.128906 48 48 141.128906 48 256 C 48 354.214844 116.097656 436.480469 207.640625 458.289062 C 202.902344 457.160156 198.207031 455.894531 193.601562 454.457031 L 193.601562 406.800781 C 193.601562 406.800781 185.800781 409.398438 175.398438 409.398438 C 146.304688 409.398438 134.214844 383.441406 131.199219 370.398438 C 129.367188 362.457031 124.585938 354.929688 119.449219 350.328125 C 113.3125 344.855469 110.441406 344.839844 110.398438 342.96875 C 110.320312 339.039062 115.664062 339.199219 118.199219 339.199219 C 131.199219 339.199219 141.054688 353.03125 145.632812 360.183594 C 156.96875 377.839844 169.136719 380.800781 175.398438 380.800781 C 183.199219 380.800781 189.9375 379.632812 194.574219 377.390625 C 196.71875 362.289062 203.441406 348.832031 214.398438 339.199219 C 165.625 329.449219 131.199219 301.472656 131.199219 256 C 131.199219 232.574219 140.601562 211.046875 156.265625 193.664062 C 154.664062 189.128906 152 179.953125 152 165 C 152 155.121094 152.6875 142.992188 157.199219 131.199219 C 157.199219 131.199219 186.863281 131.40625 214.839844 157.902344 C 227.753906 154.144531 241.566406 152 256 152 C 270.433594 152 284.246094 154.144531 297.160156 157.902344 C 325.136719 131.40625 354.800781 131.199219 354.800781 131.199219 C 359.335938 142.992188 360 155.121094 360 165 C 360 181.121094 357.855469 190.519531 356.542969 194.574219 C 371.726562 211.800781 380.800781 232.992188 380.800781 256 C 380.800781 301.472656 346.375 329.449219 297.601562 339.199219 C 310.625 350.640625 318.398438 367.304688 318.398438 386 L 318.398438 454.457031 C 313.792969 455.902344 309.105469 457.160156 304.359375 458.289062 C 395.902344 436.480469 464 354.214844 464 256 C 464 141.128906 370.871094 48 256 48 Z M 270.503906 463.441406 C 265.710938 463.777344 260.878906 464 256 464 C 260.878906 464 265.703125 463.769531 270.503906 463.441406 Z M 302.289062 458.769531 C 292.976562 460.886719 283.433594 462.375 273.6875 463.199219 C 283.433594 462.375 292.976562 460.878906 302.289062 458.769531 Z M 256 464 C 251.121094 464 246.289062 463.777344 241.496094 463.441406 C 246.296875 463.769531 251.121094 464 256 464 Z M 238.304688 463.199219 C 228.566406 462.375 219.015625 460.886719 209.710938 458.769531 C 219.023438 460.878906 228.566406 462.375 238.304688 463.199219 Z M 238.304688 463.199219 "/>
</g>
</svg>
