<?xml version="1.0" encoding="UTF-8"?>
<svg xmlns="http://www.w3.org/2000/svg" xmlns:xlink="http://www.w3.org/1999/xlink" viewBox="0 0 480 480" width="480px" height="480px">
<g id="surface25507755">
<rect x="0" y="0" width="480" height="480" style="fill:rgb(7.058824%,7.058824%,7.058824%);fill-opacity:1;stroke:none;"/>
<path style=" stroke:none;fill-rule:nonzero;fill:rgb(100%,100%,100%);fill-opacity:1;" d="M 160 60 C 104.78125 60 60 104.78125 60 160 L 60 320 C 60 375.21875 104.78125 420 160 420 L 320 420 C 375.21875 420 420 375.21875 420 320 L 420 160 C 420 104.78125 375.21875 60 320 60 Z M 360 100 C 371.039062 100 380 108.960938 380 120 C 380 131.039062 371.039062 140 360 140 C 348.960938 140 340 131.039062 340 120 C 340 108.960938 348.960938 100 360 100 Z M 240 140 C 295.21875 140 340 184.78125 340 240 C 340 295.21875 295.21875 340 240 340 C 184.78125 340 140 295.21875 140 240 C 140 184.78125 184.78125 140 240 140 Z M 240 180 C 206.863281 180 180 206.863281 180 240 C 180 273.136719 206.863281 300 240 300 C 273.136719 300 300 273.136719 300 240 C 300 206.863281 273.136719 180 240 180 Z M 240 180 "/>
</g>
</svg>
